<svg xmlns="http://www.w3.org/2000/svg" version="1.1" viewBox="-5.0 -10.0 110.0 135.0">
 <g>
  <path d="m34.898 15.199c0.10156 0 0.30078 0 0.39844-0.10156 1.3008-0.60156 2.6992-1 4.1016-1.5 0.60156-0.19922 0.89844-0.80078 0.80078-1.3984-0.19922-0.60156-0.80078-0.89844-1.3984-0.80078-1.5 0.39844-2.8984 0.89844-4.3008 1.5-0.60156 0.19922-0.80078 0.89844-0.60156 1.5 0.10156 0.60156 0.60156 0.80078 1 0.80078z"/>
  <path d="m56.5 12.699h0.19922c0.5 0 1-0.39844 1.1016-0.89844 0.10156-0.60156-0.30078-1.1992-0.89844-1.3008-1.5-0.30078-3-0.39844-4.5-0.5-0.69922 0-1.1016 0.39844-1.1992 1 0 0.60156 0.39844 1.1016 1 1.1992 1.3984 0.10156 2.8984 0.30078 4.2969 0.5z"/>
  <path d="m12.699 35.398c-0.60156 1.3984-1 2.8984-1.3984 4.3984-0.19922 0.60156 0.19922 1.1992 0.80078 1.3984h0.30078c0.5 0 0.89844-0.30078 1.1016-0.80078 0.39844-1.3984 0.80078-2.8008 1.3008-4.1016 0.19922-0.60156-0.10156-1.1992-0.60156-1.3984-0.60156-0.29297-1.3047 0.003907-1.5039 0.50391z"/>
  <path d="m17 27.398c-0.89844 1.3008-1.6992 2.6016-2.3984 3.8984-0.30078 0.5-0.10156 1.1992 0.5 1.5 0.19922 0.10156 0.30078 0.10156 0.5 0.10156 0.39844 0 0.80078-0.19922 1-0.60156 0.69922-1.3008 1.3984-2.5 2.1992-3.6992 0.30078-0.5 0.19922-1.1992-0.30078-1.5-0.5-0.39844-1.1992-0.19922-1.5 0.30078z"/>
  <path d="m21.5 25.199c0.89844-1.1016 2-2.1016 3-3.1016 0.5-0.39844 0.5-1.1016 0.10156-1.6016-0.39844-0.5-1.1016-0.5-1.6016-0.10156-1.1016 1-2.1992 2.1016-3.1992 3.3008-0.39844 0.5-0.39844 1.1992 0.10156 1.6016 0.19922 0.19922 0.5 0.30078 0.69922 0.30078 0.29688 0.003906 0.59766-0.097656 0.89844-0.39844z"/>
  <path d="m27.199 19.602c0.19922 0 0.5-0.10156 0.69922-0.19922 1.1992-0.80078 2.3984-1.6016 3.6016-2.3008 0.5-0.30078 0.69922-1 0.39844-1.5-0.30078-0.5-1-0.69922-1.5-0.39844-1.3008 0.69922-2.6016 1.6016-3.8008 2.5-0.5 0.39844-0.60156 1.1016-0.19922 1.6016 0.10156 0.09375 0.40234 0.29687 0.80078 0.29687z"/>
  <path d="m43.602 12.699c1.3984-0.19922 2.8008-0.39844 4.3008-0.5 0.60156 0 1.1016-0.60156 1-1.1992 0-0.60156-0.5-1.1016-1.1992-1-1.5 0.10156-3.1016 0.30078-4.5 0.5-0.60156 0.10156-1 0.69922-0.89844 1.3008 0.10156 0.5 0.60156 0.89844 1.1016 0.89844h0.19531z"/>
  <path d="m87.301 35.5c-0.19922-0.60156-0.89844-0.89844-1.3984-0.60156-0.5 0.30078-0.89844 0.89844-0.60156 1.3984 0.5 1.3008 1 2.6992 1.3008 4.1016 0.10156 0.5 0.60156 0.80078 1.1016 0.80078h0.30078c0.60156-0.19922 0.89844-0.80078 0.80078-1.3984-0.50391-1.4023-0.90625-2.9023-1.5039-4.3008z"/>
  <path d="m83 27.398c-0.30078-0.5-1-0.60156-1.5-0.30078-0.5 0.30078-0.60156 1-0.30078 1.5 0.80078 1.1992 1.6016 2.3984 2.1992 3.6992 0.19922 0.39844 0.60156 0.60156 1 0.60156 0.19922 0 0.39844 0 0.5-0.10156 0.5-0.30078 0.69922-1 0.5-1.5-0.69922-1.2969-1.5-2.5977-2.3984-3.8984z"/>
  <path d="m89.602 44.301c-0.10156-0.60156-0.69922-1-1.3008-0.89844-0.60156 0.10156-1 0.60156-0.89844 1.3008 0.19922 1.3984 0.30078 2.8984 0.39844 4.3008 0 0.60156 0.5 1.1016 1.1016 1.1016 0.60156 0 1.1016-0.5 1.1016-1.1016-0.003906-1.6055-0.20312-3.2031-0.40234-4.7031z"/>
  <path d="m64.699 15.199c0.10156 0.10156 0.30078 0.10156 0.39844 0.10156 0.39844 0 0.80078-0.30078 1-0.69922 0.19922-0.60156 0-1.1992-0.60156-1.5-1.3984-0.60156-2.8008-1.1016-4.3008-1.5-0.60156-0.19922-1.1992 0.19922-1.3984 0.80078-0.19922 0.60156 0.19922 1.1992 0.80078 1.3984 1.5039 0.30078 2.8008 0.80078 4.1016 1.3984z"/>
  <path d="m72.199 19.398c0.19922 0.10156 0.39844 0.19922 0.69922 0.19922 0.30078 0 0.69922-0.19922 0.89844-0.5 0.39844-0.5 0.30078-1.1992-0.19922-1.6016-1.1992-0.89844-2.5-1.6992-3.8008-2.5-0.5-0.30078-1.1992-0.10156-1.5 0.39844s-0.10156 1.1992 0.39844 1.5c1.2031 0.90625 2.4062 1.707 3.5039 2.5039z"/>
  <path d="m78.602 25.301c0.19922 0.30078 0.5 0.39844 0.80078 0.39844 0.30078 0 0.5-0.10156 0.69922-0.30078 0.5-0.39844 0.5-1.1016 0.10156-1.6016-1-1.1016-2.1016-2.1992-3.1992-3.3008-0.5-0.39844-1.1992-0.39844-1.6016 0.10156-0.39844 0.5-0.39844 1.1992 0.10156 1.6016 1.0977 0.90234 2.0977 2 3.0977 3.1016z"/>
  <path d="m41.199 89c0.5 0 1-0.30078 1.1016-0.89844 0.10156-0.60156-0.19922-1.1992-0.80078-1.3008-1.3984-0.30078-2.8008-0.69922-4.1016-1.1992-0.60156-0.19922-1.1992 0.10156-1.3984 0.69922-0.19922 0.60156 0.10156 1.1992 0.69922 1.3984 1.3984 0.5 2.8984 0.89844 4.3984 1.3008h0.10156z"/>
  <path d="m70.398 81.801c-1.1992 0.80078-2.5 1.5-3.8008 2.1016-0.60156 0.30078-0.80078 0.89844-0.5 1.5 0.19922 0.39844 0.60156 0.60156 1 0.60156 0.19922 0 0.30078 0 0.5-0.10156 1.3984-0.69922 2.6992-1.3984 4-2.1992 0.5-0.30078 0.69922-1 0.30078-1.5-0.29688-0.60156-1-0.70312-1.5-0.40234z"/>
  <path d="m77.102 76.301c-1 1-2.1016 2-3.1992 2.8984-0.5 0.39844-0.5 1.1016-0.19922 1.6016 0.19922 0.30078 0.5 0.39844 0.89844 0.39844 0.19922 0 0.5-0.10156 0.69922-0.19922 1.1992-1 2.3008-2 3.3984-3.1016 0.39844-0.39844 0.39844-1.1016 0-1.6016-0.5-0.39844-1.1992-0.39844-1.5977 0.003906z"/>
  <path d="m10.398 44.301c-0.19922 1.5-0.30078 3-0.39844 4.6016 0 0.60156 0.5 1.1016 1.1016 1.1016 0.60156 0 1.1016-0.5 1.1016-1.1016 0-1.3984 0.19922-2.8984 0.39844-4.3008 0.10156-0.60156-0.30078-1.1992-0.89844-1.3008-0.60156-0.10156-1.2031 0.30078-1.3047 1z"/>
  <path d="m83.898 69.102c-0.5-0.30078-1.1992-0.10156-1.5 0.39844-0.69922 1.1992-1.6016 2.3984-2.3984 3.6016-0.39844 0.5-0.30078 1.1992 0.19922 1.6016 0.19922 0.19922 0.39844 0.19922 0.69922 0.19922 0.30078 0 0.69922-0.10156 0.89844-0.39844 0.89844-1.1992 1.8008-2.5 2.6016-3.8008 0.10156-0.50391 0-1.2031-0.5-1.6016z"/>
  <path d="m45.699 87.5c-0.60156-0.10156-1.1992 0.39844-1.1992 1-0.10156 0.60156 0.39844 1.1992 1 1.1992 1.5 0.19922 3 0.30078 4.6016 0.30078 1.5 0 3-0.10156 4.5-0.19922 0.60156-0.10156 1-0.60156 1-1.1992-0.10156-0.60156-0.60156-1.1016-1.1992-1-3.0039 0.19922-5.9023 0.19922-8.7031-0.10156z"/>
  <path d="m89.199 58c0.30078-1.5 0.5-3 0.69922-4.5 0.10156-0.60156-0.39844-1.1992-1-1.1992-0.60156 0-1.1992 0.39844-1.1992 1-0.10156 1.3984-0.30078 2.8984-0.60156 4.3008-0.10156 0.60156 0.30078 1.1992 0.89844 1.3008h0.19922c0.40625-0.10156 0.90625-0.40234 1.0039-0.90234z"/>
  <path d="m84.898 67.199c0.10156 0.10156 0.30078 0.10156 0.5 0.10156 0.39844 0 0.80078-0.19922 1-0.60156 0.60156-1.3984 1.1992-2.8008 1.6992-4.3008 0.19922-0.60156-0.10156-1.1992-0.69922-1.3984-0.60156-0.19922-1.1992 0.10156-1.3984 0.69922-0.39844 1.3984-1 2.6992-1.6016 4-0.29688 0.60156-0.097657 1.1992 0.5 1.5z"/>
  <path d="m62.602 85.602c-1.3984 0.5-2.6992 0.89844-4.1016 1.1992-0.60156 0.10156-1 0.69922-0.80078 1.3008 0.10156 0.5 0.60156 0.89844 1.1016 0.89844h0.19922c1.5-0.30078 3-0.80078 4.3984-1.3008 0.60156-0.19922 0.89844-0.80078 0.69922-1.3984-0.19922-0.60156-0.89844-0.90234-1.4961-0.69922z"/>
  <path d="m13 57.5c-0.30078-1.3984-0.5-2.8008-0.60156-4.3008-0.10156-0.60156-0.60156-1.1016-1.1992-1-0.60156 0.10156-1.1016 0.60156-1 1.1992 0.10156 1.5 0.30078 3 0.60156 4.5 0.10156 0.5 0.60156 0.89844 1.1016 0.89844h0.19922c0.59766-0.19531 1-0.69531 0.89844-1.2969z"/>
  <path d="m13.602 66.602c0.19922 0.39844 0.60156 0.60156 1 0.60156 0.19922 0 0.30078 0 0.5-0.10156 0.60156-0.30078 0.80078-0.89844 0.5-1.5-0.60156-1.3008-1.1016-2.6992-1.6016-4-0.19922-0.60156-0.80078-0.89844-1.3984-0.69922-0.60156 0.19922-0.89844 0.80078-0.69922 1.3984 0.49609 1.5 1.0977 2.8984 1.6992 4.3008z"/>
  <path d="m32.301 85.898c0.19922 0.10156 0.30078 0.10156 0.5 0.10156 0.39844 0 0.80078-0.19922 1-0.60156 0.30078-0.60156 0-1.1992-0.5-1.5-1.3008-0.60156-2.6016-1.3984-3.8008-2.1016-0.5-0.30078-1.1992-0.19922-1.5 0.30078s-0.19922 1.1992 0.30078 1.5c1.3008 0.80078 2.6992 1.6016 4 2.3008z"/>
  <path d="m18.301 74.398c0.19922 0.30078 0.5 0.39844 0.89844 0.39844 0.19922 0 0.5-0.10156 0.69922-0.19922 0.5-0.39844 0.60156-1.1016 0.19922-1.6016-0.89844-1.1016-1.6992-2.3008-2.3984-3.6016-0.30078-0.5-1-0.69922-1.5-0.39844-0.5 0.30078-0.69922 1-0.39844 1.5 0.69922 1.4023 1.5977 2.7031 2.5 3.9023z"/>
  <path d="m25.398 81.199c0.30078 0 0.60156-0.10156 0.89844-0.39844 0.39844-0.5 0.30078-1.1992-0.19922-1.6016-1.1016-0.89844-2.1992-1.8984-3.1992-2.8984-0.39844-0.39844-1.1016-0.39844-1.6016 0-0.39844 0.39844-0.39844 1.1016 0 1.6016 1.1016 1.1016 2.1992 2.1016 3.3984 3.1016 0.20313 0.097656 0.40625 0.19531 0.70313 0.19531z"/>
  <path fill="white" d="m50 84.199c18.898 0 34.199-15.301 34.199-34.199s-15.301-34.199-34.199-34.199-34.199 15.301-34.199 34.199c0 18.801 15.398 34.199 34.199 34.199z"/>
 </g></svg>