<svg xmlns="http://www.w3.org/2000/svg" xmlns:xlink="http://www.w3.org/1999/xlink" version="1.1" x="0px" y="0px" viewBox="0 0 32 32" style="enable-background:new 0 0 32 32;" xml:space="preserve"><path d="M28,31H4c-0.6,0-1-0.4-1-1v-8c0-0.6,0.4-1,1-1s1,0.4,1,1v7h22v-7c0-0.6,0.4-1,1-1s1,0.4,1,1v8C29,30.6,28.6,31,28,31z   M16,25C16,25,16,25,16,25L16,25c-0.1,0-0.3,0-0.4-0.1c-0.1,0-0.2-0.1-0.3-0.2l-8-8c-0.4-0.4-0.4-1,0-1.4s1-0.4,1.4,0l6.3,6.3V4  c0-0.6,0.4-1,1-1s1,0.4,1,1v17.6l6.3-6.3c0.4-0.4,1-0.4,1.4,0s0.4,1,0,1.4l-8,8c-0.1,0.1-0.2,0.2-0.3,0.2C16.3,25,16.1,25,16,25  L16,25C16,25,16,25,16,25z"/></svg>