<svg xmlns="http://www.w3.org/2000/svg" viewBox="0 0 52 75" x="0px" y="0px"><path fill="#000000" d="M91.2803688,243.536443 C90.5386769,244.154519 89.4613231,244.154519 88.7196312,243.536443 C72.3051626,229.857719 64,216.015781 64,202 C64,187.640597 75.6405965,176 90,176 C104.359403,176 116,187.640597 116,202 C116,216.015781 107.694837,229.857719 91.2803688,243.536443 Z M112,202 C112,189.849736 102.150264,180 90,180 C77.8497355,180 68,189.849736 68,202 C68,214.299514 75.2733328,226.763348 89.9999846,239.381734 C104.726662,226.763356 112,214.299518 112,202 Z M83,212 L83,196 C83,194.435359 84.715655,193.476659 86.0481949,194.296683 L99.0481949,202.296683 C100.317268,203.077652 100.317268,204.922348 99.0481949,205.703317 L86.0481949,213.703317 C84.715655,214.523341 83,213.564641 83,212 Z M87,208.420871 L94.1839156,204 L87,199.579129 L87,208.420871 Z" transform="translate(-64 -176)"/></svg>