<svg xmlns="http://www.w3.org/2000/svg" viewBox="0 0 64 64" x="0px" y="0px"><g data-name="Clear"><path d="M42.65,25.8H37.16l.92-16.67a1.5,1.5,0,0,0-1.5-1.58H27.42a1.5,1.5,0,0,0-1.5,1.58l.92,16.67H21.35a8.51,8.51,0,0,0-8.5,8.5V55a1.5,1.5,0,0,0,1.5,1.5h35.3a1.5,1.5,0,0,0,1.5-1.5V34.3A8.51,8.51,0,0,0,42.65,25.8ZM29,10.55h6L34.16,25.8H29.84ZM21.35,28.8h21.3a5.51,5.51,0,0,1,5.5,5.5v1.56H15.85V34.3A5.51,5.51,0,0,1,21.35,28.8Zm22,24.65V48.87a1.5,1.5,0,0,0-3,0v4.58H37.54V43.81a1.5,1.5,0,0,0-3,0v9.64H24.16V48a1.5,1.5,0,0,0-3,0v5.43H15.85V38.86h32.3V53.45Z"/></g></svg>