<svg xmlns="http://www.w3.org/2000/svg" version="1.1" viewBox="-5.0 -10.0 110.0 110.0">
 <path d="m37.031 73.629c-0.41016-1.8789-1.3711-3.6406-2.8086-5.0195-0.46094-0.44141-0.96094-0.83984-1.5195-1.1914-2.3008-1.4688-4.9805-1.8711-7.4492-1.3281-2.4688 0.53906-4.7383 2.0312-6.2109 4.3281-1.4688 2.3008-1.8711 4.9805-1.3281 7.4492 0.53906 2.4688 2.0312 4.7383 4.3281 6.2109 2.3008 1.4688 4.9805 1.8711 7.4609 1.3281 2.4102-0.53125 4.6289-1.9609 6.1094-4.1719l0.10156-0.16016c1.457-2.2852 1.8555-4.9648 1.3164-7.4453zm43.93-3.207c-1.4688-2.3008-3.7383-3.7891-6.2109-4.3281-2.4688-0.53906-5.1484-0.14062-7.4492 1.3281-0.55078 0.35156-1.0586 0.75-1.5195 1.1914-1.4492 1.3789-2.3984 3.1406-2.8086 5.0195-0.53906 2.4688-0.14062 5.1484 1.3281 7.4492l0.10156 0.16016c1.4688 2.2109 3.6914 3.6406 6.1094 4.1719 2.4688 0.53906 5.1484 0.14063 7.4492-1.3281 2.3008-1.4688 3.7891-3.7383 4.3281-6.2109 0.55078-2.4766 0.15234-5.1562-1.3281-7.4531zm-12.191 7.9688zm3.1523-7.25c0.57812-0.089844 1.1719-0.058594 1.7305 0.058594 0.58984 0.12891 1.1484 0.37109 1.6602 0.73047 0.5 0.35156 0.94141 0.78906 1.2617 1.2891l0.011719 0.011719-0.011719 0.011719c0.32812 0.51172 0.53906 1.0898 0.64844 1.6914l0.019532 0.10938c0.089843 0.57812 0.058593 1.1719-0.058594 1.7305-0.12891 0.57812-0.37109 1.1484-0.73047 1.6602l-0.14844 0.23047c-0.30859 0.39063-0.69922 0.73828-1.1602 1.0312l-0.17969 0.12109c-0.46094 0.26172-0.96875 0.44141-1.4883 0.53125-0.62109 0.10938-1.25 0.10156-1.8594-0.039062-0.57813-0.12891-1.1289-0.35938-1.6211-0.69922-0.46875-0.32031-0.87891-0.73047-1.2109-1.2305l-0.10156-0.16016-0.12109-0.17969c-0.25-0.44922-0.42188-0.94141-0.51172-1.4492-0.10938-0.62109-0.10156-1.2617 0.039063-1.8594 0.10156-0.44141 0.26172-0.87109 0.48047-1.2695 0.23828-0.42969 0.51172-0.78906 0.80859-1.0781l0.011719 0.011719 0.35938-0.30078 0.37891-0.26953c0.51953-0.32812 1.0898-0.53906 1.6914-0.64844zm-51.934-41.242c-2.6289-4.1094-3.3516-8.9102-2.3789-13.32 0.96875-4.4297 3.6289-8.5 7.7383-11.129 2.4219-1.5586 5.6523-0.84766 7.2109 1.582l17.441 27.238 17.441-27.238c1.5586-2.4297 4.7891-3.1289 7.2188-1.5703 4.1094 2.6289 6.7617 6.6992 7.7383 11.129 0.96875 4.4102 0.25 9.2109-2.3789 13.32l-16.398 25.621 1.3906 2.1602c1.3711-0.58984 2.7812-1 4.1992-1.2617 2.5391-0.44922 5.1406-0.39063 7.6211 0.14844 2.5117 0.55078 4.8984 1.5781 7.0312 3.0703 2.0391 1.4219 3.8516 3.2695 5.2891 5.5391 1.4414 2.25 2.3711 4.6797 2.8086 7.1211 0.44922 2.5391 0.39062 5.1406-0.14844 7.6211-0.55078 2.5117-1.5898 4.8984-3.0703 7.0312-1.3516 1.9297-3.0898 3.6602-5.1914 5.0703l-0.32031 0.23047c-2.25 1.4414-4.6797 2.3711-7.1406 2.8008-2.5391 0.44922-5.1406 0.39062-7.6211-0.14844-2.4492-0.53906-4.8086-1.5508-6.9297-3.0195l0.011719-0.011719c-1.8984-1.3086-3.5898-2.9609-4.9609-4.9297-0.12109-0.14844-0.23828-0.30859-0.33984-0.46875l-6.25-9.6953-6.2109 9.7109c-0.10937 0.16016-0.21875 0.32031-0.33984 0.46875-1.3789 1.9805-3.0703 3.6289-4.9805 4.9414-2.1289 1.4688-4.4883 2.4805-6.9102 3.0117-2.4883 0.55078-5.0781 0.60938-7.6211 0.14844-2.4688-0.44141-4.8984-1.3711-7.1406-2.8008l-0.32031-0.23047c-2.1094-1.4102-3.8516-3.1406-5.1914-5.0703-1.4805-2.1289-2.5195-4.5312-3.0703-7.0312-0.55078-2.4883-0.60938-5.0781-0.14844-7.6211 0.44141-2.4492 1.3594-4.8711 2.8086-7.1211 1.4492-2.2617 3.2617-4.1211 5.2891-5.5391 2.1289-1.4805 4.5312-2.5195 7.0312-3.0703 2.4883-0.55078 5.0781-0.60938 7.6211-0.14844 1.4219 0.25 2.8281 0.67188 4.1992 1.2617l1.3906-2.1602zm19.5 30.473 3.1016 4.8398 1.2109 1.8789 3.1016 4.8398-7.5117 11.73h-0.011719c-2.1406 3.2617-5.3906 5.3594-8.9297 6.1406-3.6016 0.78906-7.5 0.21094-10.84-1.9297-3.3516-2.1406-5.5117-5.4414-6.3008-9.0391-0.78906-3.6016-0.21094-7.5 1.9414-10.84 2.1406-3.3516 5.4414-5.5117 9.0312-6.3008 3.6016-0.78906 7.5-0.21094 10.84 1.9297 0.55078 0.35156 1.0586 0.73047 1.5508 1.1406zm21.023-9.6914 15.109-23.602c3.6992-5.7812 2-13.539-3.7812-17.238l-18.738 29.27 3.1016 4.8398 1.2109 1.8789zm-17.922 4.8516-3.1016-4.8516-15.109-23.602c-3.6992-5.7812-2-13.539 3.7812-17.238l18.738 29.27 3.1016 4.8398 3.1016 4.8516 1.2109 1.8789 3.1016 4.8516 3.1016 4.8398 2.8203 4.3984c0.48047-0.41016 1-0.78906 1.5508-1.1406 3.3516-2.1406 7.2383-2.7305 10.84-1.9297 3.6016 0.78906 6.8906 2.9492 9.0391 6.3008 2.1406 3.3516 2.7188 7.2383 1.9297 10.84-0.78906 3.6016-2.9492 6.8906-6.3008 9.0391-3.3516 2.1406-7.2383 2.7188-10.84 1.9297-3.5391-0.78125-6.7891-2.8789-8.9297-6.1406h-0.011719l-7.5117-11.727-3.1016-4.8398-3.1016-4.8516-1.2109-1.8789zm6.6992-3c-0.69141 0.17188-1.2812 0.60156-1.6602 1.1719-0.30859 0.46094-0.5 1.0195-0.5 1.6211 0 0.69141 0.23828 1.3203 0.64062 1.8086 0.42969 0.53125 1.0508 0.91016 1.7617 1.0195 0.14844 0.03125 0.30859 0.039062 0.46875 0.039062s0.32031-0.011718 0.46875-0.039062c0.71094-0.12109 1.3203-0.48828 1.7617-1.0195 0.39844-0.48828 0.64062-1.1211 0.64062-1.8086 0-0.60156-0.17969-1.1602-0.5-1.6211-0.39062-0.57031-0.98047-0.98828-1.6719-1.1719-0.23047-0.058594-0.46094-0.089844-0.71094-0.089844-0.22656 0.007813-0.46875 0.039063-0.69922 0.089844zm-17.328 24.047zm-3.7695-5.4062c0.60156 0.10938 1.1719 0.32031 1.6914 0.64844l0.37891 0.26953 0.35938 0.30078 0.011718-0.011719c0.30078 0.28906 0.57031 0.64844 0.80859 1.0781 0.21875 0.39844 0.39062 0.82812 0.48047 1.2695 0.12891 0.60156 0.14844 1.2305 0.039063 1.8398v0.019532c-0.10156 0.57812-0.32031 1.1484-0.64844 1.6719l-0.070312 0.10938c-0.33984 0.48828-0.76172 0.89844-1.2305 1.2305-0.48828 0.33984-1.0391 0.57031-1.6211 0.69922-0.60156 0.12891-1.2383 0.14844-1.8594 0.039063-0.51953-0.089844-1.0312-0.26953-1.4883-0.53125l-0.17969-0.12109c-0.46094-0.30078-0.85156-0.64844-1.1602-1.0312l-0.14844-0.23047c-0.35156-0.51172-0.60156-1.0703-0.73047-1.6602-0.12109-0.55859-0.14062-1.1484-0.058594-1.7305l0.019531-0.10938c0.10938-0.60156 0.32031-1.1719 0.64844-1.6914 0.30078-0.46875 0.64844-0.85938 1.0391-1.1602l0.23047-0.14844c0.51172-0.35156 1.0703-0.60156 1.6602-0.73047 0.55859-0.12109 1.1484-0.14062 1.7305-0.058594z" fill-rule="evenodd"/>
</svg>