<svg xmlns="http://www.w3.org/2000/svg" version="1.1" viewBox="-5.0 -10.0 110.0 110.0">
 <path d="m91.434 30.617-22.055-22.055c-4.4688-4.4688-11.734-4.4688-16.203 0l-44.613 44.613c-4.4648 4.4688-4.4648 11.734 0 16.203l22.059 22.055c2.1641 2.1641 5.0391 3.3555 8.0977 3.3555s5.9375-1.1914 8.0977-3.3555l44.613-44.613c4.4688-4.4688 4.4688-11.734 0-16.203zm-49.035 56.398c-1.9688 1.9688-5.3906 1.9688-7.3594 0l-22.059-22.055c-2.0273-2.0312-2.0273-5.3359 0-7.3633l8.8203-8.8164 29.418 29.418zm44.613-44.613-31.375 31.375-29.418-29.418 31.375-31.375c1.0156-1.0117 2.3477-1.5234 3.6836-1.5234 1.3359 0 2.6641 0.50781 3.6836 1.5234l22.055 22.055c2.0312 2.0312 2.0312 5.3359 0 7.3633z"/>
</svg>