<svg xmlns="http://www.w3.org/2000/svg" viewBox="0 0 182 182" fill="none" x="0px" y="0px"><path fill-rule="evenodd" clip-rule="evenodd" d="M111 52.6667C100.875 52.6667 92.6667 60.8748 92.6667 71C92.6667 81.1252 100.875 89.3333 111 89.3333C121.125 89.3333 129.333 81.1252 129.333 71C129.333 60.8748 121.125 52.6667 111 52.6667ZM102.667 71C102.667 66.3976 106.398 62.6667 111 62.6667C115.602 62.6667 119.333 66.3976 119.333 71C119.333 75.6024 115.602 79.3333 111 79.3333C106.398 79.3333 102.667 75.6024 102.667 71Z" fill="black"/><path fill-rule="evenodd" clip-rule="evenodd" d="M36 54.3333C36 44.2081 44.2081 36 54.3333 36H127.667C137.792 36 146 44.2081 146 54.3333V127.667C146 137.792 137.792 146 127.667 146H54.3333C44.2081 146 36 137.792 36 127.667V54.3333ZM54.3333 46C49.731 46 46 49.731 46 54.3333V110.326L67.1302 84.5005C68.086 83.3324 69.5182 82.6585 71.0275 82.6667C72.5367 82.675 73.9615 83.3646 74.9043 84.5432L98.0813 113.514L110.798 100.798C111.772 99.8241 113.104 99.295 114.48 99.3355C115.857 99.3759 117.156 99.9823 118.07 101.012L136 121.182V54.3333C136 49.731 132.269 46 127.667 46H54.3333ZM46 127.667V126.118L70.9563 95.616L93.7623 124.123C94.6508 125.234 95.9701 125.914 97.3902 125.992C98.8102 126.071 100.197 125.541 101.202 124.536L114.119 111.618L133.592 133.526C132.082 135.053 129.985 136 127.667 136H54.3333C49.731 136 46 132.269 46 127.667Z" fill="black"/></svg>