<svg xmlns="http://www.w3.org/2000/svg" xmlns:xlink="http://www.w3.org/1999/xlink" version="1.1" width="32" height="52" viewBox="0 -5 32 42" xml:space="preserve"><g><path d="M27.206,2.643C23.967,1.634,20.092,1.1,16,1.1S8.033,1.634,4.793,2.643C3.108,3.169,1.969,4.765,2.025,6.524   C2.212,12.46,3.761,26.684,14.09,30.556c0.616,0.23,1.263,0.346,1.91,0.346s1.294-0.115,1.91-0.346c0,0,0,0,0.001,0   C28.237,26.685,29.788,12.46,29.976,6.524C30.031,4.765,28.893,3.169,27.206,2.643z M17.279,28.87   c-0.827,0.309-1.734,0.309-2.558,0C5.413,25.381,4,12.041,3.824,6.468c-0.03-0.954,0.589-1.82,1.505-2.106   C8.397,3.405,12.087,2.9,16,2.9c3.913,0,7.603,0.505,10.671,1.461c0.916,0.286,1.536,1.152,1.506,2.106   C28.001,12.041,26.586,25.381,17.279,28.87z"/><path d="M12.719,12.256c0.178,0.215,0.435,0.327,0.694,0.327c0.2,0,0.4-0.066,0.567-0.202c0.386-0.313,0.444-0.881,0.13-1.267   c-0.05-0.062-1.253-1.524-3.133-1.428c-1.963-0.085-3.153,1.366-3.203,1.428c-0.312,0.383-0.253,0.942,0.126,1.258   c0.379,0.315,0.945,0.261,1.265-0.115c0.028-0.033,0.704-0.819,1.812-0.771C12.005,11.441,12.679,12.209,12.719,12.256z"/><path d="M21.091,9.687c-1.966-0.081-3.152,1.366-3.202,1.428c-0.313,0.386-0.256,0.952,0.13,1.267   c0.387,0.313,0.953,0.255,1.267-0.13c0.006-0.008,0.719-0.79,1.806-0.766c1.014-0.052,1.701,0.721,1.742,0.771   c0.179,0.215,0.436,0.327,0.695,0.327c0.199,0,0.4-0.066,0.567-0.202c0.386-0.314,0.443-0.881,0.13-1.267   C24.176,11.054,22.987,9.607,21.091,9.687z"/><path d="M21.335,18.606c-0.456-0.191-0.985,0.026-1.176,0.486c-0.771,1.861-2.266,3.017-3.899,3.017   c-1.633,0-3.126-1.155-3.898-3.017c-0.19-0.459-0.715-0.676-1.176-0.486c-0.459,0.19-0.677,0.717-0.487,1.176   c1.057,2.546,3.188,4.128,5.562,4.128c2.375,0,4.506-1.582,5.562-4.128C22.012,19.323,21.794,18.797,21.335,18.606z"/></g></svg>